<?xml version="1.0" encoding="utf-8"?>
<!-- Generator: Adobe Illustrator 24.2.1, SVG Export Plug-In . SVG Version: 6.00 Build 0)  -->
<svg version="1.1" id="Ebene_1" xmlns="http://www.w3.org/2000/svg" xmlns:xlink="http://www.w3.org/1999/xlink" x="0px" y="0px"
	 viewBox="0 0 50 50" style="enable-background:new 0 0 50 50;" xml:space="preserve">
<path d="M41.6,26.9c-0.8,0-1.5,0.7-1.5,1.5v15.1H9.9V28.4c0-0.8-0.7-1.5-1.5-1.5c-0.8,0-1.5,0.7-1.5,1.5V45c0,0.8,0.7,1.5,1.5,1.5
	h33.2c0.8,0,1.5-0.7,1.5-1.5V28.4C43.1,27.6,42.4,26.9,41.6,26.9L41.6,26.9z M49.5,27.4L26.1,3.9c-0.6-0.6-1.5-0.6-2.1,0L0.5,27.4
	c-0.6,0.6-0.6,1.5,0,2.1c0.3,0.3,0.7,0.4,1.1,0.4c0.4,0,0.8-0.1,1.1-0.4L25,7.1l22.4,22.4c0.6,0.6,1.5,0.6,2.1,0
	C50.1,28.9,50.1,28,49.5,27.4L49.5,27.4z"/>
</svg>
