<?xml version="1.0" encoding="utf-8"?>
<!-- Generator: Adobe Illustrator 24.2.1, SVG Export Plug-In . SVG Version: 6.00 Build 0)  -->
<svg version="1.1" id="Ebene_1" xmlns="http://www.w3.org/2000/svg" xmlns:xlink="http://www.w3.org/1999/xlink" x="0px" y="0px"
	 viewBox="0 0 50 50" style="enable-background:new 0 0 50 50;" xml:space="preserve">
<g>
	<path d="M41.1,14.6L25,28.9L8.9,14.6c-0.6-0.6-1.6-0.5-2.2,0.1c-0.6,0.6-0.5,1.6,0.1,2.2L24,32.1c0.3,0.3,0.7,0.4,1,0.4
		s0.7-0.1,1-0.4L43.2,17c0.6-0.6,0.7-1.5,0.1-2.2C42.8,14.1,41.8,14.1,41.1,14.6L41.1,14.6z M41.1,14.6"/>
	<path d="M45.3,8.1H4.7c-2.6,0-4.7,2.1-4.7,4.7v24.6c0,2.6,2.1,4.7,4.7,4.7h40.5c2.6,0,4.7-2.1,4.7-4.7V12.7
		C49.9,10.1,47.8,8.1,45.3,8.1L45.3,8.1z M46.8,37.3c0,0.9-0.7,1.6-1.6,1.6H4.7c-0.9,0-1.6-0.7-1.6-1.6V12.7c0-0.9,0.7-1.6,1.6-1.6
		h40.5c0.9,0,1.6,0.7,1.6,1.6V37.3z M46.8,37.3"/>
</g>
</svg>
