<?xml version="1.0" encoding="utf-8"?>
<!-- Generator: Adobe Illustrator 24.2.1, SVG Export Plug-In . SVG Version: 6.00 Build 0)  -->
<svg version="1.1" id="Ebene_1" xmlns="http://www.w3.org/2000/svg" xmlns:xlink="http://www.w3.org/1999/xlink" x="0px" y="0px"
	 viewBox="0 0 50 50" style="enable-background:new 0 0 50 50;" xml:space="preserve">
<g>
	<path d="M42.8,6.6C38.5,2.3,32.9,0,26.9,0c-1,0-1.8,0.8-1.8,1.8c0,1,0.8,1.8,1.8,1.8c5,0,9.8,2,13.3,5.5c3.6,3.6,5.5,8.3,5.5,13.3
		c0,1,0.8,1.8,1.8,1.8c1,0,1.8-0.8,1.8-1.8C49.3,16.4,47,10.8,42.8,6.6z"/>
	<path d="M35.5,22.4c0,1,0.8,1.8,1.8,1.8c1,0,1.8-0.8,1.8-1.8c0-6.7-5.4-12.1-12.1-12.1c-1,0-1.8,0.8-1.8,1.8c0,1,0.8,1.8,1.8,1.8
		C31.6,13.8,35.5,17.7,35.5,22.4z"/>
	<path d="M31.5,31.4c-2.7-0.1-4.1,1.9-4.7,2.8c-0.6,0.8-0.3,1.9,0.5,2.5c0.8,0.6,1.9,0.3,2.5-0.5c0.8-1.1,1.1-1.3,1.6-1.3
		c1.5,0.2,7.6,4.6,8.2,6c0.2,0.4,0.1,0.8,0,1.3c-0.6,1.9-1.7,3.2-3,3.8c-1.3,0.6-2.9,0.5-4.6-0.2c-6.3-2.6-11.9-6.2-16.4-10.7
		c0,0,0,0,0,0C11,30.6,7.4,25.1,4.8,18.8c-0.7-1.7-0.7-3.3-0.2-4.6c0.6-1.4,1.9-2.4,3.8-3C9,11,9.4,11,9.8,11.2
		c1.4,0.6,5.8,6.6,6,8.2c0,0.5-0.2,0.9-1.3,1.6c-0.8,0.6-1,1.7-0.5,2.5c0.6,0.8,1.7,1,2.5,0.5c1-0.7,3-2,2.8-4.7
		C19.1,16.3,13.6,8.8,11,7.9c-1.2-0.4-2.4-0.4-3.7,0c-2.8,1-4.9,2.7-5.9,4.9c-1,2.2-1,4.7,0.1,7.4C4.3,26.9,8.1,32.8,13,37.7
		c0,0,0,0,0,0c4.9,4.8,10.8,8.7,17.6,11.4c1.4,0.6,2.7,0.8,4,0.8c1.2,0,2.3-0.2,3.4-0.7c2.3-1,4-3.1,4.9-5.9c0.4-1.3,0.4-2.5,0-3.7
		C41.9,37.1,34.4,31.6,31.5,31.4z"/>
</g>
</svg>
