<?xml version="1.0" encoding="utf-8"?>
<!-- Generator: Adobe Illustrator 24.2.1, SVG Export Plug-In . SVG Version: 6.00 Build 0)  -->
<svg version="1.1" id="Ebene_1" xmlns="http://www.w3.org/2000/svg" xmlns:xlink="http://www.w3.org/1999/xlink" x="0px" y="0px"
	 viewBox="0 0 130.4 130.4" style="enable-background:new 0 0 130.4 130.4;" xml:space="preserve">
<style type="text/css">
	.st0{fill:none;}
	.st1{fill:none;stroke:#000000;stroke-width:5;stroke-miterlimit:10;}
</style>
<g>
	<polygon class="st0" points="65.3,46 30.8,59.1 65.1,73.1 99.6,58.5 	"/>
	<g>
		<path class="st0" d="M91.4,57.5"/>
		<path class="st0" d="M42.6,65.9v13.3c0,0.1,0,0.2,0,0.2c0,2.1,9.1,5.1,23.5,5.1s23.5-3,23.5-5.1c0-0.1,0-0.2,0-0.2v-0.1V64.8
			L65.1,75.1L42.6,65.9z"/>
		<path d="M91.4,64l13.2-5.6L65.3,44L25.8,59l7.2,3v13.2h1.8V62.8l5.9,2.4v14c0,0,0,0.2,0,0.3c0,4.6,12.7,6.9,25.3,6.9
			s25.3-2.4,25.3-6.9c0-0.1,0-0.2,0-0.3L91.4,64L91.4,64z M40.8,63.2l-9.9-4.1L65.3,46l34.2,12.6L91.4,62l-1.8,0.8L65.1,73.1
			l-22.4-9.2L40.8,63.2z M66.1,84.5c-14.3,0-23.5-3-23.5-5.1c0-0.1,0-0.2,0-0.2V65.9l22.5,9.2l24.5-10.4v14.4v0.1c0,0,0,0.1,0,0.2
			C89.6,81.5,80.4,84.5,66.1,84.5z"/>
	</g>
</g>
<circle class="st1" cx="65.2" cy="65.2" r="55.4"/>
</svg>
