<?xml version="1.0" encoding="utf-8"?>
<!-- Generator: Adobe Illustrator 24.2.1, SVG Export Plug-In . SVG Version: 6.00 Build 0)  -->
<svg version="1.1" id="Ebene_1" xmlns="http://www.w3.org/2000/svg" xmlns:xlink="http://www.w3.org/1999/xlink" x="0px" y="0px"
	 viewBox="0 0 130.4 130.4" style="enable-background:new 0 0 130.4 130.4;" xml:space="preserve">
<style type="text/css">
	.st0{fill:none;stroke:#000000;stroke-width:5;stroke-miterlimit:10;}
</style>
<g>
	<path d="M65.2,30.3C46,30.3,30.3,46,30.3,65.2s15.7,34.9,34.9,34.9s34.9-15.7,34.9-34.9S84.4,30.3,65.2,30.3z M65.2,98.2
		c-18.2,0-33-14.8-33-33s14.8-33,33-33s33,14.8,33,33S83.4,98.2,65.2,98.2z"/>
	<polygon points="65.3,63.9 46.1,44.7 44.7,46 65.1,66.3 65.1,66.3 65.3,66.5 77.5,54.4 76.2,53 	"/>
</g>
<circle class="st0" cx="65.2" cy="65.2" r="55.4"/>
</svg>
