<?xml version="1.0" encoding="utf-8"?>
<!-- Generator: Adobe Illustrator 24.2.1, SVG Export Plug-In . SVG Version: 6.00 Build 0)  -->
<svg version="1.1" id="Ebene_1" xmlns="http://www.w3.org/2000/svg" xmlns:xlink="http://www.w3.org/1999/xlink" x="0px" y="0px"
	 viewBox="0 0 130.4 130.4" style="enable-background:new 0 0 130.4 130.4;" xml:space="preserve">
<style type="text/css">
	.st0{fill:none;stroke:#000000;stroke-width:5;stroke-miterlimit:10;}
</style>
<path d="M94.4,42c-7.2-7.1-19-7.1-26.2,0l-3,3l-3-3c-3.5-3.4-8.2-5.3-13.1-5.3c-5,0-9.6,1.9-13.1,5.3c-3.9,3.9-6.1,9-6.1,14.5
	S32.1,67.1,36,71l29.2,28.8L94.4,71c3.9-3.9,6.1-9,6.1-14.5S98.4,45.9,94.4,42z M93.2,69.7l-28,27.5l-0.1-0.1L39,71.4h9.4l7.6-15
	l7.6,23.9l8.6-16.2l4.8,7.3h9.2v-1.8H78l-5.9-9.1l-8,15.1l-7.7-24.1l-9.1,18H37.1c-3.5-3.5-5.5-8.2-5.5-13.1c0-5,2-9.7,5.5-13.2
	c3.2-3.1,7.4-4.8,11.8-4.8c4.5,0,8.7,1.7,11.8,4.8l4.3,4.2l4.3-4.2c6.5-6.4,17.1-6.4,23.7,0c3.6,3.5,5.6,8.2,5.6,13.2
	C98.7,61.5,96.7,66.2,93.2,69.7z"/>
<circle class="st0" cx="65.2" cy="65.2" r="55.4"/>
</svg>
