<?xml version="1.0" encoding="utf-8"?>
<!-- Generator: Adobe Illustrator 24.2.1, SVG Export Plug-In . SVG Version: 6.00 Build 0)  -->
<svg version="1.1" id="Ebene_1" xmlns="http://www.w3.org/2000/svg" xmlns:xlink="http://www.w3.org/1999/xlink" x="0px" y="0px"
	 viewBox="0 0 130.4 130.4" style="enable-background:new 0 0 130.4 130.4;" xml:space="preserve">
<style type="text/css">
	.st0{fill:#1B1B16;}
	.st1{fill:none;stroke:#000000;stroke-width:5;stroke-miterlimit:10;}
</style>
<g>
	<g>
		<path class="st0" d="M84.7,75.1l1.6-2.9l5.5-3.8l0.6-6.7l3.5-5.8l-2.2-6.4l0.8-6.7l-4.6-4.9L88,31.5l-6.2-2.6l-4.4-5.1l-6.7,0.1
			L64.6,21l-6.1,2.9l-6.7-0.1l-4.4,5.1l-6.2,2.6l-1.9,6.4l-4.6,4.9l0.8,6.7l-2.2,6.4l3.5,5.8l0.6,6.7l5.5,3.8l2.4,4.4L38.1,92
			L52,89.5l7,12.2l6.2-13.3l10.7,23l7-12.2l13.9,2.5L84.7,75.1z M39.2,67.3L38.7,61l-3.2-5.4l2.1-5.9l-0.8-6.2l4.3-4.6l1.8-6
			l5.8-2.4l4.1-4.8l6.3,0.1l5.7-2.7l5.7,2.7l6.3-0.1l4.1,4.8l5.8,2.4l1.8,6l4.3,4.6L92,49.7l2.1,5.9L90.5,61L90,67.3l-5.1,3.6
			l-3,5.5l-6.1,1.2l-5,3.8L64.6,80l-6.1,1.4l-5-3.8l-6.1-1.2l-3-5.5L39.2,67.3z M58.9,97.7L53,87.4l-11.7,2.1l5.3-11.4l6.1,1.2
			l5.3,4.1l4.4-1.1l1.8,3.8L58.9,97.7z M82.1,97.1l-5.9,10.3L64.3,81.9l0.2-0.1l6.5,1.5l5.3-4.1l6.6-1.3l0.5-1L93.7,99L82.1,97.1z"
			/>
		<path class="st0" d="M64.6,74.6c12.3,0,22.4-10,22.4-22.4c0-12.3-10-22.4-22.4-22.4c-12.3,0-22.4,10-22.4,22.4
			C42.2,64.6,52.2,74.6,64.6,74.6z M64.6,31.7c11.3,0,20.5,9.2,20.5,20.5s-9.2,20.5-20.5,20.5S44,63.5,44,52.2S53.3,31.7,64.6,31.7z
			"/>
	</g>
	<g>
		<path class="st0" d="M64.6,74.6c-12.3,0-22.4-10-22.4-22.4c0-12.3,10-22.4,22.4-22.4c12.3,0,22.4,10,22.4,22.4
			S76.9,74.6,64.6,74.6z M64.6,31.7C53.3,31.7,44,40.9,44,52.2s9.2,20.5,20.5,20.5S85,63.5,85,52.2C85.1,40.9,75.9,31.7,64.6,31.7z"
			/>
	</g>
</g>
<circle class="st1" cx="65.2" cy="65.2" r="55.4"/>
</svg>
