<?xml version="1.0" encoding="utf-8"?>
<!-- Generator: Adobe Illustrator 24.2.1, SVG Export Plug-In . SVG Version: 6.00 Build 0)  -->
<svg version="1.1" id="Ebene_1" xmlns="http://www.w3.org/2000/svg" xmlns:xlink="http://www.w3.org/1999/xlink" x="0px" y="0px"
	 viewBox="0 0 130.4 130.4" style="enable-background:new 0 0 130.4 130.4;" xml:space="preserve">
<style type="text/css">
	.st0{fill:#1B1B16;}
	.st1{fill:none;stroke:#000000;stroke-width:5;stroke-miterlimit:10;}
</style>
<g id="Ebene_1_1_">
	<g>
		<path class="st0" d="M73.7,39.2c-3,0-4.5,4.3-4.5,13.2c0,2.5,1.7,11.3,1.7,11.3v24.5c0,1.5,1.3,2.8,2.8,2.8s2.8-1.3,2.8-2.8V42
			C76.5,40.5,75.3,39.2,73.7,39.2z M74.7,88.4c0,0.5-0.4,1-1,1s-1-0.4-1-1V63.6l0-0.1c-0.2-0.9-1.7-8.9-1.7-11.1
			c0-3.6,0.2-6.5,0.7-8.4c0.3-1.1,0.9-3,1.9-3c0.5,0,1,0.4,1,1C74.7,42,74.7,88.4,74.7,88.4z"/>
		<path class="st0" d="M62.8,39.2c-1,0-1.7,0.8-1.7,1.7v5.9c0,0.2,0,0.4,0,0.5c0-0.1-0.1-0.3-0.1-0.6v-5.8c0-1-0.8-1.7-1.7-1.7
			s-1.7,0.8-1.7,1.7v5.8c0,0.2,0,0.4-0.1,0.6c0-0.1-0.1-0.3-0.1-0.6v-5.8c0-1-0.8-1.7-1.7-1.7s-1.8,0.9-1.8,1.8v11
			c0,1.9,1,3.6,2.6,4.6v31.8c0,1.6,1.3,2.8,2.8,2.8s2.8-1.3,2.8-2.8V56.6c1.6-1,2.6-2.7,2.6-4.6V40.9C64.7,39.9,63.7,39.2,62.8,39.2
			z M57.8,55.2c-1.2-0.6-2-1.8-2-3.2v-4.1c0.1,0.3,0.2,0.5,0.3,0.7c0.3,0.6,0.9,0.9,1.5,0.9c0.7,0,1.5-0.5,1.8-1.6
			c0.1,0.3,0.2,0.5,0.3,0.7c0.4,0.6,0.9,0.9,1.5,0.9c0.7,0,1.4-0.5,1.7-1.5v4c0,1.4-0.8,2.6-2,3.2l-0.5,0.3v32.9c0,0.5-0.4,1-1,1
			s-1-0.4-1-1V55.5L57.8,55.2z"/>
	</g>
</g>
<circle class="st1" cx="65.2" cy="65.2" r="55.4"/>
</svg>
