<?xml version="1.0" encoding="utf-8"?>
<!-- Generator: Adobe Illustrator 24.2.1, SVG Export Plug-In . SVG Version: 6.00 Build 0)  -->
<svg version="1.1" id="Ebene_1" xmlns="http://www.w3.org/2000/svg" xmlns:xlink="http://www.w3.org/1999/xlink" x="0px" y="0px"
	 viewBox="0 0 130.4 130.4" style="enable-background:new 0 0 130.4 130.4;" xml:space="preserve">
<style type="text/css">
	.st0{fill:none;stroke:#000000;stroke-width:5;stroke-miterlimit:10;}
</style>
<g>
	<path d="M96,65.7l-4.8-7l1-8.4l-7.7-3.7L81,38.8l-8.5,0.7l-6.8-5.1l-7,4.8l-8.4-1L46.6,46l-7.8,3.4l0.7,8.5l-5.1,6.8l4.8,7l-1,8.4
		l7.7,3.7l3.4,7.8l8.5-0.7l6.8,5.1l7-4.8l8.4,1l3.7-7.7l7.8-3.4l-0.7-8.5L96,65.7z M82.4,83L79,90.1l-7.8-0.9l-6.5,4.5L58.4,89
		l-7.8,0.6l-3.1-7.2L40.3,79l0.9-7.8l-4.5-6.5l4.7-6.3l-0.6-7.8l7.2-3.1l3.4-7.1l7.8,0.9l6.5-4.5l6.3,4.7l7.8-0.6L83,48l7.1,3.4
		l-0.9,7.8l4.5,6.5L89,72l0.6,7.8L82.4,83z"/>
	<path d="M62.7,57c0-3.1-2.5-5.7-5.7-5.7s-5.7,2.5-5.7,5.7s2.5,5.7,5.7,5.7S62.7,60.1,62.7,57z M53.2,57c0-2.1,1.7-3.8,3.8-3.8
		s3.8,1.7,3.8,3.8s-1.7,3.8-3.8,3.8S53.2,59.1,53.2,57z"/>
	<path d="M73.3,67.7c-3.1,0-5.7,2.5-5.7,5.7s2.5,5.7,5.7,5.7s5.7-2.5,5.7-5.7S76.5,67.7,73.3,67.7z M73.3,77.3
		c-2.1,0-3.8-1.7-3.8-3.8s1.7-3.8,3.8-3.8s3.8,1.7,3.8,3.8S75.5,77.3,73.3,77.3z"/>
	<polygon points="73.5,51.8 54.2,78.5 56.9,78.5 76.2,51.8 	"/>
</g>
<circle class="st0" cx="65.2" cy="65.2" r="55.4"/>
</svg>
