<?xml version="1.0" encoding="utf-8"?>
<!-- Generator: Adobe Illustrator 24.2.1, SVG Export Plug-In . SVG Version: 6.00 Build 0)  -->
<svg version="1.1" id="Ebene_1" xmlns="http://www.w3.org/2000/svg" xmlns:xlink="http://www.w3.org/1999/xlink" x="0px" y="0px"
	 viewBox="0 0 130.4 130.4" style="enable-background:new 0 0 130.4 130.4;" xml:space="preserve">
<style type="text/css">
	.st0{stroke:#000000;stroke-width:0.5;stroke-miterlimit:10;}
	.st1{fill:none;stroke:#000000;stroke-width:5;stroke-miterlimit:10;}
</style>
<g>
	<path class="st0" d="M33.2,101.7l49.4-25.9L50.2,48.5L33.2,101.7z M79.9,75.4L35.8,98.7L51,51.2L79.9,75.4z"/>
	<rect x="64.4" y="45.7" transform="matrix(0.6428 -0.766 0.766 0.6428 -7.1799 77.5397)" class="st0" width="30.2" height="1.6"/>
	<rect x="72.8" y="56.2" transform="matrix(0.9397 -0.342 0.342 0.9397 -14.3946 32.2345)" class="st0" width="22.8" height="1.5"/>
	
		<rect x="57.1" y="42.9" transform="matrix(0.1736 -0.9848 0.9848 0.1736 13.5897 103.5806)" class="st0" width="22.8" height="1.6"/>
	<polygon class="st0" points="75.1,39.4 77.1,39.3 77.3,41.2 78.8,41.1 78.6,39.1 80.6,38.9 80.5,37.4 78.5,37.6 78.3,35.6 
		76.8,35.7 76.9,37.7 75,37.8 	"/>
	<polygon class="st0" points="85.1,47.8 87.1,47.7 87.3,49.7 88.8,49.5 88.7,47.5 90.7,47.4 90.5,45.8 88.5,46 88.3,44 86.9,44.1 
		87,46.1 85,46.3 	"/>
	<polygon class="st0" points="89.5,32.5 91.5,32.3 91.6,34.3 93.1,34.1 93,32.1 95,32 94.9,30.5 92.9,30.7 92.7,28.7 91.2,28.8 
		91.3,30.7 89.3,31 	"/>
	<polygon class="st0" points="57.8,48.3 59.7,48.1 59.9,50.1 61.4,49.9 61.2,47.9 63.2,47.8 63.1,46.3 61.1,46.4 60.9,44.5 
		59.4,44.5 59.6,46.5 57.6,46.7 	"/>
	<polygon class="st0" points="84.8,64.5 82.8,64.6 82.6,62.6 81.2,62.8 81.3,64.8 79.3,65 79.5,66.5 81.5,66.3 81.6,68.3 83.1,68.2 
		83,66.2 85,66 	"/>
	<path class="st0" d="M65.2,33c0.3-0.4,0.3-1.1-0.2-1.4c-0.4-0.3-1.1-0.3-1.4,0.2c-0.3,0.4-0.3,1.1,0.2,1.4
		C64.1,33.5,64.8,33.4,65.2,33z"/>
	<path class="st0" d="M96.9,58.2c-0.4-0.3-1.1-0.3-1.4,0.2c-0.3,0.4-0.3,1.1,0.2,1.4c0.4,0.3,1.1,0.3,1.4-0.2
		C97.3,59.2,97.3,58.5,96.9,58.2z"/>
</g>
<circle class="st1" cx="65.2" cy="65.2" r="55.4"/>
</svg>
