<?xml version="1.0" encoding="utf-8"?>
<!-- Generator: Adobe Illustrator 24.2.1, SVG Export Plug-In . SVG Version: 6.00 Build 0)  -->
<svg version="1.1" id="Ebene_1" xmlns="http://www.w3.org/2000/svg" xmlns:xlink="http://www.w3.org/1999/xlink" x="0px" y="0px"
	 viewBox="0 0 130.4 130.4" style="enable-background:new 0 0 130.4 130.4;" xml:space="preserve">
<style type="text/css">
	.st0{stroke:#000000;stroke-width:0.25;stroke-miterlimit:10;}
	.st1{fill:none;stroke:#000000;stroke-width:0.25;stroke-miterlimit:10;}
	.st2{fill:none;stroke:#000000;stroke-width:5;stroke-miterlimit:10;}
</style>
<g>
	<g>
		<path class="st0" d="M55.4,38.7H43.5c-1.4,0-1.9-1.1-1.9-1.9v-6.2c0-1.4,1.1-1.9,1.9-1.9h11.9c1.4,0,1.9,1.1,1.9,1.9v6.2
			C57.3,38.1,56.2,38.7,55.4,38.7z M43.5,30C43,30,43,30.4,43,30.5v6.2c0,0.5,0.4,0.5,0.5,0.5h11.9c0.5,0,0.5-0.4,0.5-0.5v-6.2
			c0-0.5-0.4-0.5-0.5-0.5C55.4,30,43.5,30,43.5,30z"/>
	</g>
	<g>
		<path class="st1" d="M63.8,75.5c-0.8,2-1.2,4.1-1.2,6.4c0,2.2,0.4,4.4,1.2,6.4"/>
		<path class="st1" d="M63.8,71.8v-20L55,40.3H43.2L35.1,53v42.7c0,0,0,2.6,1.4,3.9c0.6,0.6,1.3,0.9,2.2,0.9c4.3,0,4.7-3.1,4.8-3.3
			l0.3-1.9l0.9,1.6c0,0,2.1,3.4,4.6,3.4c3.1,0,4.6-3.3,4.6-3.3l0.8-2l0.5,2.1c0,0.2,0.9,3.3,4.7,3.3c1.2,0,2.1-0.3,2.8-1
			c1.3-1.4,1-3.6,1-3.6V92C62,89.1,61,85.6,61,82C61.1,78.3,62,74.8,63.8,71.8z"/>
		<path class="st1" d="M65.2,91.1c3.2,5.3,9,8.9,15.6,8.9c10,0,18.2-8.2,18.2-18.2s-8.2-18.2-18.2-18.2c-6.7,0-12.5,3.6-15.6,8.9"/>
	</g>
	<path class="st0" d="M86.6,63c3.9-0.4,6.8-3.1,6.6-6c-0.2-1.4-0.3-4.8-0.3-4.8l-0.1-0.8l-7.5,0.5c-4,0.3-7.2,3.6-7,7.3
		c0,0.1,0,0.2,0,0.3c-1.5-2.2-3.7-4-6.4-4.7l-0.4,1.5c2.4,0.7,4.5,2.2,5.8,4.4c0.3,0.5,0.5,1.1,0.8,1.6c-5.2,0.8-9.7,3.5-12.8,7.5
		V51.4l-9.5-12.5H42.5l-8.8,13.7v43c0,0.1,0,3.1,1.7,4.9c0.9,0.9,1.9,1.3,3.2,1.3c3.4,0,5-1.7,5.7-3c0.9,1.2,2.8,3,5,3
		c2.7,0,4.3-1.7,5.2-2.9c0.9,1.4,2.6,2.9,5.5,2.9c1.6,0,2.9-0.5,3.9-1.5c1.6-1.8,1.5-4.6,1.5-4.6V94c3.6,4.7,9.3,7.7,15.6,7.7
		c10.9,0,19.8-8.8,19.8-19.8C100.7,73,94.8,65.4,86.6,63z M85.4,53.4l5.9-0.4c0.1,1.1,0.2,3.1,0.3,4c0.2,2.2-2.4,4.1-5.6,4.4
		c-1.5,0.1-4.5,0.3-5.9,0.4C80,61,79.9,59.7,79.9,59C79.7,56.3,82.2,53.7,85.4,53.4z M63.8,71.8c-0.2,0.3-0.3,0.6-0.5,0.9H35.1v-7.4
		h28.8V71.8z M43.2,40.3H55l8.8,11.5v12.1H35.1v-11L43.2,40.3z M62.7,99.3c-0.7,0.7-1.6,1-2.8,1c-3.9,0-4.7-3.2-4.7-3.3L54.7,95
		l-0.8,2c-0.1,0.2-1.5,3.3-4.6,3.3c-2.5,0-4.6-3.4-4.6-3.4l-0.9-1.6l-0.3,1.9c0,0.2-0.5,3.3-4.8,3.3c-0.9,0-1.6-0.3-2.2-0.9
		c-1.4-1.4-1.4-3.9-1.4-3.9V74.2h27.6c-1,2.4-1.5,5-1.5,7.7c0,3.7,1,7.1,2.7,10v3.7C63.8,95.7,64,97.9,62.7,99.3z M80.9,100.2
		c-6.7,0-12.5-3.6-15.6-8.9c-0.5-0.9-1-1.9-1.4-2.8c-0.8-2-1.2-4.1-1.2-6.4c0-2.2,0.4-4.4,1.2-6.4c0.3-1,0.9-2,1.4-2.8
		c2.7-4.6,7.6-8,13.2-8.8c0.3,1.3,0.2,2.7-0.2,4l1.5,0.4c0.4-1.5,0.4-3.1,0.3-4.6c0.3,0,0.6,0,0.9,0c10,0,18.2,8.2,18.2,18.2
		S90.9,100.2,80.9,100.2z"/>
</g>
<circle class="st2" cx="65.2" cy="65.2" r="55.4"/>
</svg>
