<?xml version="1.0" encoding="utf-8"?>
<!-- Generator: Adobe Illustrator 24.2.1, SVG Export Plug-In . SVG Version: 6.00 Build 0)  -->
<svg version="1.1" id="Ebene_1" xmlns="http://www.w3.org/2000/svg" xmlns:xlink="http://www.w3.org/1999/xlink" x="0px" y="0px"
	 viewBox="0 0 130.4 130.4" style="enable-background:new 0 0 130.4 130.4;" xml:space="preserve">
<style type="text/css">
	.st0{fill:none;stroke:#000000;stroke-width:5;stroke-miterlimit:10;}
</style>
<g>
	<path d="M103,71.1c-1.5-1.5-3.6-2.4-5.8-2.5c-2.3,0-4.4,0.8-6.1,2.5l-5.6,5.6c-2.9,2.9-6.9,4.6-11,4.6H60.7c-0.4,0-0.7-0.2-0.9-0.5
		c-0.2-0.4,0-0.7,0.2-0.9c0.2-0.2,0.4-0.2,0.6-0.2h12.5c0.7,0,1.3-0.1,2-0.2c3.5-0.8,6.2-3.5,7-7c0.1-0.6,0.2-1.3,0.2-2v-0.9
		c0-0.5-0.4-0.9-0.9-0.9h-32c-4.6,0-7.6,0.9-9.3,2.9v-2.7h-13v22.9h13.1V91c0.8,0.7,1.8,1.2,2.8,1.4l8.6,1.5
		c2.1,0.4,4.3,0.6,6.4,0.6c0.5,0,1,0,1.5,0l15.1-0.6c1,0,2.1-0.3,3.1-0.7c4.2-1.7,8.5-3.8,12.1-7.4L103,72.5
		c0.2-0.2,0.3-0.4,0.3-0.7S103.2,71.3,103,71.1z M38.3,89.8H29V70.7h9.3v8.1c0,0.4,0,0.7,0,1.1V89.8z M58.1,81.5
		c0.4,1,1.5,1.7,2.6,1.7h13.8c4.6,0,9.1-1.9,12.4-5.1l5.6-5.6c1.3-1.3,2.9-1.9,4.7-1.9c1.4,0,2.7,0.5,3.8,1.3L88.5,84.4
		c-3.4,3.4-7.5,5.3-11.5,7c-0.8,0.3-1.6,0.5-2.5,0.5l-15.1,0.6c-2.5,0.1-5.1-0.1-7.5-0.5l-8.6-1.5c-1.8-0.3-3.1-1.9-3.1-3.7v-8
		c0-5.2,0.7-8.3,9.3-8.3h31c0,0.5-0.1,1-0.2,1.5c-0.6,2.8-2.8,4.9-5.6,5.5c-0.5,0.1-1,0.2-1.6,0.2H60.6c-0.7,0-1.4,0.3-1.9,0.8
		C57.9,79.4,57.7,80.5,58.1,81.5z"/>
	<path d="M68.3,57.2c9,0,18.8-1.7,18.8-5.5h-1.8c0,1.2-6,3.6-16.9,3.6s-16.9-2.4-16.9-3.6h-1.8C49.5,55.5,59.3,57.2,68.3,57.2z"/>
	<path d="M68.3,62.8c9,0,18.8-1.7,18.8-5.5h-1.8c0,1.2-6,3.6-16.9,3.6s-16.9-2.4-16.9-3.6h-1.8C49.5,61.1,59.3,62.8,68.3,62.8z"/>
	<path d="M68.3,46.9c9,0,18.8-1.7,18.8-5.5S77.3,36,68.3,36s-18.8,1.7-18.8,5.5S59.3,46.9,68.3,46.9z M68.3,37.8
		c10.9,0,16.9,2.4,16.9,3.6s-6,3.6-16.9,3.6s-16.9-2.4-16.9-3.6S57.4,37.8,68.3,37.8z"/>
	<path d="M68.3,51.7c9,0,18.8-1.7,18.8-5.5h-1.8c0,1.2-6,3.6-16.9,3.6s-16.9-2.4-16.9-3.6h-1.8C49.5,50,59.3,51.7,68.3,51.7z"/>
</g>
<circle class="st0" cx="65.2" cy="65.2" r="55.4"/>
</svg>
