<?xml version="1.0" encoding="utf-8"?>
<!-- Generator: Adobe Illustrator 24.2.1, SVG Export Plug-In . SVG Version: 6.00 Build 0)  -->
<svg version="1.1" id="Ebene_1" xmlns="http://www.w3.org/2000/svg" xmlns:xlink="http://www.w3.org/1999/xlink" x="0px" y="0px"
	 viewBox="0 0 130.4 130.4" style="enable-background:new 0 0 130.4 130.4;" xml:space="preserve">
<style type="text/css">
	.st0{fill:none;stroke:#000000;stroke-width:5;stroke-miterlimit:10;}
</style>
<g>
	<path d="M54,36.4h28.9c1.7,0,1.9,1.5,1.9,1.9v28.3h1.8V38.3c0-1.5-1-3.8-3.8-3.8H46.5c-1.5,0-3.8,1-3.8,3.8V42h-2.8v1.8h2.8v6.7
		h-2.8v1.8h2.8V59h-2.8v1.8h2.8v6.7h-2.8v1.8h2.8V76h-2.8v1.8h2.8v6.7h-2.8v1.8h2.8v5.4c0,1.5,1,3.8,3.8,3.8h13.3v-1.8H54V36.4z
		 M52.1,93.7h-5.6c-1.7,0-1.9-1.5-1.9-1.9v-5.4h3.6v-1.8h-3.6v-6.7h3.6V76h-3.6v-6.7h3.6v-1.8h-3.6v-6.7h3.6V59h-3.6v-6.7h3.6v-1.8
		h-3.6v-6.7h3.6V42h-3.6v-3.6c0-1.7,1.5-1.9,1.9-1.9h5.6V93.7z"/>
	<path d="M90.5,75.1l-5.8-6.2L66.9,85.5l0,0l-4.8,10.3l10.6-4.1l0,0l0,0l0,0l0,0L90.5,75.1z M66,92.2l1.5-3.2l1.8,1.9L66,92.2z
		 M71.5,90.3l-3.3-3.5l16.4-15.3l3.3,3.5L71.5,90.3z"/>
</g>
<circle class="st0" cx="65.2" cy="65.2" r="55.4"/>
</svg>
